<svg id="svg" version="1.1" xmlns="http://www.w3.org/2000/svg" xmlns:xlink="http://www.w3.org/1999/xlink" width="400" height="400" viewBox="0, 0, 400,400"><g id="svgg"><path id="path0" d="M163.612 20.536 C 164.052 20.621,164.773 20.621,165.214 20.536 C 165.654 20.451,165.294 20.382,164.413 20.382 C 163.532 20.382,163.172 20.451,163.612 20.536 M305.217 31.359 C 286.661 36.235,275.250 55.217,279.886 73.494 C 280.931 77.615,281.566 76.392,274.822 83.244 C 272.229 85.878,270.107 88.164,270.107 88.323 C 270.107 88.482,269.872 88.612,269.585 88.612 C 269.299 88.612,268.912 88.892,268.726 89.235 C 268.540 89.577,266.413 91.874,263.998 94.339 C 261.584 96.804,255.815 102.729,251.178 107.506 C 246.541 112.284,240.856 118.131,238.544 120.501 C 236.233 122.871,233.842 125.354,233.231 126.017 C 232.620 126.681,231.819 127.476,231.452 127.784 C 231.084 128.092,229.702 129.494,228.381 130.899 C 225.143 134.343,225.131 134.225,229.890 146.085 C 230.047 146.477,231.249 149.600,232.560 153.025 C 233.872 156.450,235.567 160.774,236.328 162.633 C 237.088 164.493,239.138 170.178,240.884 175.267 C 246.133 190.569,245.926 190.247,251.275 191.481 C 253.118 191.907,255.827 192.575,257.295 192.967 C 258.763 193.359,260.845 193.897,261.922 194.162 C 262.998 194.427,265.320 195.028,267.082 195.497 C 268.843 195.966,271.646 196.676,273.310 197.073 C 276.010 197.718,281.985 199.204,288.612 200.878 C 289.884 201.199,292.126 201.782,293.594 202.174 C 295.062 202.566,296.664 202.953,297.153 203.034 C 297.642 203.115,299.164 203.501,300.534 203.890 C 301.904 204.280,304.066 204.862,305.338 205.184 C 309.341 206.195,310.458 206.496,311.932 206.960 C 312.721 207.208,313.935 207.518,314.629 207.649 C 315.852 207.878,315.912 207.965,316.552 210.437 C 317.415 213.773,321.601 221.443,322.865 222.005 C 323.012 222.070,323.132 222.282,323.132 222.477 C 323.132 222.931,327.197 226.802,329.612 228.647 C 336.813 234.148,348.506 236.766,356.762 234.725 C 362.978 233.188,369.516 230.731,370.463 229.576 C 370.560 229.457,371.201 228.965,371.886 228.483 C 378.139 224.080,383.453 216.026,385.394 208.007 C 386.912 201.735,386.068 190.215,383.829 186.655 C 383.583 186.263,383.174 185.302,382.921 184.520 C 382.667 183.737,382.354 183.016,382.225 182.918 C 382.096 182.820,381.607 182.100,381.139 181.317 C 380.670 180.534,380.180 179.813,380.051 179.715 C 379.921 179.617,379.539 178.999,379.202 178.341 C 378.435 176.846,373.860 172.254,371.816 170.929 C 370.974 170.382,370.205 169.835,370.107 169.712 C 370.009 169.589,369.248 169.147,368.416 168.730 C 367.585 168.313,366.287 167.659,365.533 167.277 C 359.685 164.314,351.243 163.225,344.869 164.611 C 341.520 165.340,335.237 167.175,334.520 167.634 C 334.226 167.822,333.305 168.327,332.473 168.756 C 331.641 169.185,330.961 169.665,330.961 169.822 C 330.961 169.979,330.721 170.107,330.428 170.107 C 329.751 170.107,322.064 177.508,322.064 178.160 C 322.064 178.731,321.716 178.768,320.545 178.323 C 320.076 178.145,319.145 177.908,318.476 177.798 C 317.807 177.688,316.699 177.427,316.014 177.220 C 313.764 176.538,306.627 174.676,304.448 174.203 C 303.274 173.948,300.872 173.347,299.110 172.868 C 292.902 171.180,291.267 170.757,289.858 170.476 C 288.183 170.141,277.544 167.392,275.942 166.880 C 274.718 166.489,273.900 166.301,271.530 165.865 C 270.023 165.588,258.486 162.545,255.872 161.735 C 255.774 161.704,254.853 161.553,253.826 161.399 C 252.798 161.245,251.957 160.979,251.957 160.808 C 251.957 160.638,251.677 160.493,251.335 160.487 C 250.992 160.481,248.913 160.040,246.714 159.508 L 242.717 158.541 248.316 152.831 C 251.395 149.690,258.078 142.836,263.167 137.599 C 268.256 132.362,276.664 123.760,281.851 118.482 C 287.037 113.204,291.225 108.889,291.157 108.892 C 291.088 108.894,293.261 106.655,295.986 103.915 C 301.217 98.653,301.217 98.653,302.971 99.427 C 305.826 100.687,308.432 101.125,313.701 101.232 C 317.559 101.311,330.312 98.559,330.961 97.509 C 331.067 97.338,331.550 97.025,332.036 96.815 C 337.897 94.274,345.587 85.629,347.720 79.181 C 347.979 78.399,348.307 77.594,348.449 77.394 C 351.073 73.695,350.687 57.104,347.878 52.817 C 347.577 52.358,347.331 51.779,347.331 51.530 C 347.331 50.864,345.485 47.331,345.138 47.331 C 344.974 47.331,344.840 47.099,344.840 46.815 C 344.840 46.531,344.640 46.171,344.395 46.014 C 344.150 45.858,343.635 45.111,343.250 44.355 C 342.198 42.290,336.079 36.299,335.022 36.299 C 334.794 36.299,334.396 36.045,334.138 35.734 C 333.880 35.423,332.539 34.642,331.158 33.998 C 325.555 31.386,324.988 31.182,322.206 30.767 C 321.443 30.653,320.293 30.422,319.650 30.252 C 316.636 29.457,310.728 29.910,305.217 31.359 " stroke="none" fill="#ffffff" fill-rule="evenodd"></path><path id="path1" d="M173.456 22.014 C 173.607 22.258,173.510 22.338,173.204 22.221 C 172.430 21.923,167.217 27.764,164.610 31.851 C 144.891 62.762,160.720 103.271,196.085 112.398 C 204.183 114.488,219.133 114.604,218.353 112.571 C 218.244 112.289,218.314 112.159,218.509 112.280 C 218.703 112.400,218.861 112.337,218.861 112.142 C 218.861 111.946,218.701 111.687,218.505 111.566 C 218.310 111.445,218.149 110.964,218.149 110.498 C 218.149 110.032,217.989 109.552,217.794 109.431 C 217.598 109.310,217.438 108.829,217.438 108.363 C 217.438 107.897,217.278 107.416,217.082 107.295 C 216.886 107.174,216.726 106.696,216.726 106.232 C 216.726 105.768,216.486 105.149,216.192 104.855 C 215.899 104.562,215.658 103.919,215.658 103.427 C 215.658 102.935,215.498 102.434,215.302 102.313 C 215.107 102.192,214.947 101.632,214.947 101.068 C 214.947 100.504,214.786 99.943,214.591 99.822 C 214.395 99.701,214.235 99.221,214.235 98.754 C 214.235 98.288,214.075 97.808,213.879 97.687 C 213.683 97.566,213.523 97.074,213.523 96.593 C 213.523 96.113,213.375 95.442,213.195 95.102 C 213.014 94.762,212.518 93.283,212.093 91.815 C 211.043 88.195,210.760 87.420,209.392 84.428 C 208.743 83.007,207.865 80.765,207.440 79.446 C 207.016 78.126,206.540 76.726,206.384 76.335 C 206.228 75.943,205.784 74.742,205.397 73.665 C 205.011 72.589,204.291 70.907,203.798 69.929 C 202.965 68.276,201.772 65.077,199.884 59.431 C 199.458 58.158,198.990 57.064,198.843 56.999 C 198.697 56.934,198.577 56.413,198.577 55.842 C 198.577 55.271,198.416 54.804,198.221 54.804 C 198.025 54.804,197.865 54.476,197.865 54.076 C 197.865 53.675,197.464 52.976,196.975 52.522 C 196.486 52.069,196.085 51.365,196.085 50.959 C 196.085 50.552,195.925 50.121,195.730 50.000 C 195.534 49.879,195.374 49.378,195.374 48.887 C 195.374 48.395,194.933 47.324,194.395 46.505 C 193.857 45.687,193.098 44.377,192.708 43.594 C 192.318 42.811,191.896 42.091,191.770 41.993 C 191.553 41.825,191.063 41.042,189.322 38.078 C 187.580 35.112,186.577 33.519,185.409 31.863 C 183.622 29.329,178.597 24.199,177.901 24.199 C 177.577 24.199,177.104 23.950,176.851 23.645 C 176.598 23.340,175.818 22.828,175.117 22.507 C 174.417 22.186,173.701 21.854,173.527 21.770 C 173.353 21.685,173.321 21.795,173.456 22.014 M114.380 104.881 C 114.272 105.230,114.034 105.796,113.853 106.139 C 113.185 107.399,112.885 108.031,112.456 109.075 C 112.214 109.662,111.875 110.420,111.702 110.760 C 111.529 111.100,111.388 111.691,111.388 112.074 C 111.388 112.456,111.247 112.856,111.075 112.963 C 110.903 113.069,110.487 113.996,110.151 115.023 C 109.815 116.050,109.265 117.293,108.929 117.786 C 108.593 118.280,108.095 119.404,107.823 120.285 C 107.214 122.258,106.404 124.094,105.625 125.267 C 105.301 125.756,104.688 127.278,104.265 128.648 C 103.841 130.018,103.269 131.643,102.993 132.260 C 102.717 132.877,102.491 133.487,102.491 133.617 C 102.491 133.882,100.956 137.373,100.164 138.908 C 99.878 139.462,99.644 140.191,99.644 140.527 C 99.644 140.864,99.504 141.291,99.332 141.477 C 99.160 141.663,98.580 143.176,98.043 144.840 C 97.507 146.504,96.926 148.143,96.754 148.483 C 96.582 148.823,96.441 149.503,96.441 149.995 C 96.441 150.487,96.281 150.890,96.085 150.890 C 95.890 150.890,95.730 151.259,95.730 151.711 C 95.730 152.163,95.494 152.844,95.207 153.224 C 94.920 153.604,94.679 154.346,94.673 154.872 C 94.667 155.399,94.502 155.929,94.306 156.050 C 94.110 156.171,93.950 156.583,93.950 156.965 C 93.950 157.348,93.808 157.939,93.635 158.279 C 93.360 158.818,92.303 161.342,91.440 163.523 C 91.285 163.915,90.889 165.036,90.559 166.014 C 89.889 168.005,89.393 169.273,88.926 170.191 C 88.754 170.531,88.612 171.202,88.612 171.682 C 88.612 172.163,88.452 172.655,88.256 172.776 C 88.060 172.897,87.900 173.355,87.900 173.793 C 87.900 174.232,87.763 174.743,87.594 174.929 C 87.426 175.115,86.993 176.148,86.633 177.224 C 86.272 178.301,85.850 179.334,85.693 179.520 C 85.537 179.706,85.409 180.217,85.409 180.655 C 85.409 181.094,85.249 181.552,85.053 181.673 C 84.858 181.794,84.698 182.286,84.698 182.766 C 84.698 183.246,84.557 183.918,84.385 184.257 C 83.747 185.519,82.918 187.579,82.918 187.903 C 82.918 188.086,82.521 189.082,82.035 190.115 C 81.549 191.148,80.845 192.874,80.470 193.950 C 80.095 195.027,79.683 196.167,79.553 196.485 C 79.385 196.898,79.552 197.116,80.140 197.250 C 80.591 197.353,81.842 197.673,82.918 197.961 C 102.249 203.132,124.267 194.688,135.662 177.734 C 151.836 153.669,144.514 121.808,119.392 106.948 C 114.719 104.184,114.611 104.139,114.380 104.881 M220.285 126.225 C 193.908 141.162,180.404 169.074,187.175 194.662 C 187.356 195.347,187.652 196.468,187.832 197.153 C 194.508 222.554,223.007 240.653,250.890 237.201 C 256.748 236.475,263.636 235.041,264.841 234.297 C 265.248 234.045,265.191 232.112,264.769 231.851 C 264.573 231.730,264.413 231.318,264.413 230.935 C 264.413 230.552,264.264 229.961,264.082 229.622 C 263.901 229.282,263.460 228.234,263.104 227.294 C 262.747 226.354,262.175 225.280,261.833 224.907 C 261.490 224.534,261.210 223.912,261.210 223.523 C 261.210 223.135,261.050 222.719,260.854 222.598 C 260.658 222.477,260.498 222.065,260.498 221.682 C 260.498 220.985,260.413 220.761,259.313 218.565 C 258.986 217.913,258.719 217.205,258.719 216.992 C 258.719 216.779,258.506 216.351,258.246 216.042 C 257.987 215.733,257.575 214.760,257.332 213.879 C 256.734 211.713,254.157 204.976,253.588 204.093 C 253.336 203.701,252.770 202.365,252.331 201.123 C 251.601 199.063,250.252 196.000,249.485 194.662 C 249.317 194.368,248.974 193.435,248.723 192.588 C 248.415 191.549,247.759 190.601,246.711 189.678 C 245.544 188.651,244.931 187.703,244.255 185.880 C 243.760 184.545,243.217 183.132,243.048 182.740 C 242.879 182.349,242.475 181.228,242.151 180.249 C 239.522 172.320,236.916 164.970,235.966 162.811 C 235.794 162.420,234.815 159.938,233.790 157.295 C 232.766 154.653,231.727 152.011,231.482 151.423 C 231.237 150.836,230.445 148.754,229.724 146.797 C 227.503 140.776,226.234 137.563,225.906 137.134 C 225.733 136.908,225.636 135.867,225.689 134.821 C 225.764 133.348,225.477 132.054,224.420 129.093 C 222.893 124.815,222.839 124.778,220.285 126.225 M67.669 226.498 C 67.444 227.121,67.260 227.880,67.260 228.185 C 67.260 228.489,67.017 228.940,66.719 229.187 C 66.106 229.696,65.517 230.977,64.595 233.808 C 64.244 234.884,63.820 235.917,63.651 236.103 C 63.483 236.289,63.345 236.679,63.345 236.970 C 63.345 237.261,63.053 237.829,62.696 238.233 C 62.339 238.637,61.837 239.689,61.582 240.569 C 60.985 242.629,60.193 244.430,59.392 245.552 C 59.043 246.041,58.420 247.505,58.008 248.805 C 57.596 250.105,56.947 251.451,56.565 251.796 C 56.184 252.141,55.872 252.633,55.872 252.890 C 55.872 253.324,55.131 255.232,54.405 256.668 C 54.233 257.008,54.093 257.503,54.093 257.769 C 54.093 258.035,53.772 258.543,53.381 258.897 C 52.989 259.251,52.668 259.716,52.667 259.931 C 52.666 260.145,52.460 260.721,52.210 261.210 C 51.961 261.699,51.533 262.820,51.261 263.701 C 50.988 264.582,50.494 265.623,50.163 266.014 C 49.832 266.406,49.283 267.527,48.942 268.505 C 48.226 270.564,47.733 271.810,47.289 272.682 C 47.117 273.022,46.975 273.702,46.975 274.194 C 46.975 274.686,46.815 275.089,46.619 275.089 C 46.423 275.089,46.263 275.347,46.263 275.663 C 46.263 275.979,45.959 276.820,45.587 277.532 C 44.681 279.265,43.948 281.017,43.408 282.740 C 42.892 284.388,42.397 285.684,41.951 286.561 C 41.778 286.901,41.637 287.488,41.637 287.867 C 41.637 288.245,41.370 289.088,41.043 289.740 C 39.940 291.940,39.858 292.160,39.858 292.883 C 39.858 293.279,39.673 293.962,39.446 294.400 C 38.568 296.098,38.434 296.453,38.434 297.077 C 38.434 297.432,38.256 297.901,38.038 298.118 C 37.009 299.148,44.860 304.010,50.712 305.967 C 85.390 317.563,116.613 282.537,101.263 249.257 C 98.420 243.094,88.244 231.673,85.595 231.673 C 85.472 231.673,84.779 231.269,84.056 230.777 C 82.276 229.564,76.228 227.250,72.954 226.528 C 71.486 226.204,69.788 225.811,69.182 225.653 C 68.163 225.388,68.047 225.453,67.669 226.498 M160.676 228.297 C 127.563 232.860,106.801 266.474,117.444 298.290 C 125.125 321.254,149.581 336.784,173.342 333.786 C 216.534 328.338,235.742 278.021,206.998 245.624 C 195.489 232.653,177.608 225.964,160.676 228.297 M25.005 313.778 C 25.546 313.860,26.347 313.858,26.784 313.774 C 27.222 313.689,26.779 313.622,25.801 313.625 C 24.822 313.628,24.464 313.697,25.005 313.778 M298.310 316.260 C 298.652 316.349,299.213 316.349,299.555 316.260 C 299.898 316.170,299.617 316.097,298.932 316.097 C 298.247 316.097,297.967 316.170,298.310 316.260 M11.418 325.783 C 11.399 326.695,11.510 327.067,11.735 326.842 C 11.949 326.628,11.961 326.091,11.765 325.436 C 11.453 324.390,11.449 324.394,11.418 325.783 M11.413 329.923 C 11.427 330.592,11.575 331.459,11.742 331.851 C 11.952 332.343,12.011 332.034,11.934 330.852 C 11.805 328.876,11.376 328.110,11.413 329.923 M292.260 356.662 C 291.819 356.874,291.459 357.188,291.459 357.358 C 291.459 357.528,291.859 357.405,292.349 357.085 C 293.654 356.230,293.608 356.012,292.260 356.662 M171.708 383.274 L 170.285 383.529 171.797 383.579 C 172.629 383.607,173.310 383.470,173.310 383.274 C 173.310 383.078,173.270 382.941,173.221 382.969 C 173.172 382.996,172.491 383.134,171.708 383.274 M155.431 383.526 C 155.874 383.611,156.514 383.608,156.855 383.519 C 157.195 383.429,156.833 383.360,156.050 383.364 C 155.267 383.368,154.989 383.441,155.431 383.526 " stroke="none" fill="#bf1a30" fill-rule="evenodd"></path><path id="path2" d="M170.344 23.932 C 166.037 28.516,159.431 38.747,159.431 40.835 C 159.431 41.020,159.197 41.639,158.912 42.211 C 158.627 42.783,157.984 44.769,157.483 46.625 C 148.203 81.011,173.734 114.416,209.253 114.362 C 216.536 114.351,220.440 113.473,218.509 112.280 C 218.314 112.159,218.244 112.289,218.353 112.571 C 219.133 114.604,204.183 114.488,196.085 112.398 C 156.671 102.226,142.825 54.305,170.626 24.277 C 171.753 23.060,172.545 22.064,172.387 22.064 C 172.230 22.064,171.310 22.905,170.344 23.932 M115.098 104.228 C 115.211 104.410,116.846 105.463,118.733 106.567 C 144.483 121.643,152.032 153.377,135.662 177.734 C 124.267 194.688,102.249 203.132,82.918 197.961 C 80.041 197.192,79.154 197.026,79.412 197.305 C 79.538 197.442,80.499 197.788,81.547 198.073 C 96.491 202.147,112.497 199.042,124.911 189.660 C 153.416 168.117,150.548 124.256,119.475 106.516 C 118.257 105.820,116.727 104.946,116.077 104.574 C 115.426 104.202,114.986 104.046,115.098 104.228 M219.751 126.091 C 209.016 131.943,199.143 141.382,193.625 151.068 C 191.782 154.302,191.365 155.582,193.022 152.918 C 193.728 151.783,194.306 150.793,194.306 150.719 C 194.306 150.391,197.294 146.133,199.263 143.655 C 204.763 136.734,212.571 130.310,220.524 126.163 C 221.845 125.475,222.692 124.915,222.406 124.919 C 222.120 124.924,220.925 125.451,219.751 126.091 M191.323 155.415 C 190.910 155.828,189.705 158.681,188.575 161.922 C 172.973 206.668,212.903 247.683,260.587 235.891 C 263.083 235.274,265.125 234.623,265.125 234.445 C 265.125 234.267,264.997 234.200,264.841 234.297 C 263.636 235.041,256.748 236.475,250.890 237.201 C 223.046 240.649,194.593 222.613,187.852 197.242 C 187.683 196.606,187.387 195.485,187.195 194.751 C 184.207 183.347,185.674 168.200,190.802 157.502 C 191.745 155.536,191.925 154.812,191.323 155.415 M69.156 225.524 C 69.279 225.722,70.187 225.992,71.176 226.123 C 89.846 228.600,105.116 247.015,105.138 267.082 C 105.174 300.027,68.257 319.637,40.997 301.154 C 38.149 299.223,37.916 299.094,38.244 299.624 C 38.395 299.869,39.612 300.776,40.947 301.640 C 65.568 317.567,97.767 304.853,104.583 276.512 C 110.026 253.876,94.592 229.867,72.017 225.855 C 71.403 225.746,70.459 225.546,69.917 225.410 C 69.286 225.252,69.013 225.292,69.156 225.524 M166.292 227.664 C 167.227 227.738,168.669 227.737,169.495 227.662 C 170.321 227.588,169.555 227.527,167.794 227.528 C 166.032 227.530,165.356 227.591,166.292 227.664 M159.431 228.114 L 158.185 228.376 159.431 228.397 C 160.116 228.408,161.397 228.289,162.278 228.132 L 163.879 227.847 162.278 227.849 C 161.397 227.851,160.116 227.970,159.431 228.114 M173.488 228.169 C 206.043 233.048,225.905 261.297,219.241 293.238 C 215.888 309.306,202.709 324.371,186.611 330.539 C 144.995 346.484,103.255 306.572,117.260 264.227 C 122.783 247.526,137.220 234.173,154.982 229.337 C 156.876 228.821,157.549 228.543,156.628 228.657 C 148.795 229.621,137.376 235.919,129.881 243.408 C 98.905 274.358,115.868 326.358,159.377 333.826 C 168.107 335.325,182.303 333.659,188.207 330.443 C 188.723 330.162,190.345 329.348,191.810 328.634 C 221.165 314.344,230.057 276.243,210.370 249.110 C 201.985 237.555,184.084 227.424,172.720 227.804 C 171.584 227.842,171.713 227.903,173.488 228.169 M20.996 314.562 C 17.942 315.748,17.607 315.960,15.810 317.851 C 13.759 320.008,13.049 321.069,12.634 322.598 C 12.475 323.185,12.276 323.906,12.192 324.199 C 10.957 328.542,12.751 335.492,16.321 340.187 C 18.640 343.237,22.165 346.955,22.526 346.732 C 22.724 346.609,22.785 346.672,22.662 346.872 C 22.208 347.605,32.321 355.461,33.099 354.980 C 33.293 354.860,33.456 354.972,33.461 355.228 C 33.470 355.730,38.885 359.075,39.687 359.075 C 39.954 359.075,40.274 359.240,40.399 359.442 C 40.639 359.831,46.901 362.989,47.432 362.989 C 47.603 362.989,48.891 363.535,50.295 364.203 C 51.698 364.870,53.968 365.777,55.338 366.219 C 56.708 366.661,58.790 367.446,59.964 367.965 C 61.139 368.484,62.820 369.119,63.701 369.376 C 64.582 369.633,65.943 370.057,66.726 370.319 C 70.338 371.527,82.817 374.782,86.378 375.445 C 87.313 375.620,89.942 376.169,92.220 376.667 C 96.225 377.542,98.896 378.020,103.381 378.665 C 104.555 378.834,106.557 379.125,107.829 379.312 C 117.546 380.742,120.691 381.116,123.931 381.224 C 125.447 381.275,126.688 381.403,126.689 381.508 C 126.690 381.613,128.556 381.739,130.835 381.786 C 133.115 381.834,135.157 381.988,135.373 382.129 C 136.190 382.661,174.573 383.523,174.251 383.002 C 174.068 382.705,174.078 382.705,183.984 382.602 C 187.996 382.560,191.958 382.374,192.788 382.188 C 193.619 382.002,195.901 381.836,197.861 381.820 C 199.820 381.805,201.424 381.685,201.425 381.554 C 201.425 381.424,202.746 381.273,204.361 381.220 C 205.975 381.167,208.336 380.978,209.609 380.799 C 210.881 380.621,213.408 380.280,215.225 380.042 C 217.043 379.803,218.609 379.480,218.707 379.322 C 218.804 379.164,219.134 379.131,219.440 379.248 C 219.745 379.365,221.141 379.268,222.542 379.032 C 230.008 377.775,229.587 377.852,237.189 376.325 C 243.566 375.045,248.184 373.901,254.352 372.076 C 265.682 368.723,267.118 368.289,268.149 367.903 C 269.862 367.262,272.369 366.196,273.038 365.824 C 273.378 365.635,273.893 365.480,274.182 365.480 C 274.821 365.480,276.946 364.600,279.270 363.372 C 279.613 363.191,281.935 362.067,284.431 360.875 C 286.926 359.682,288.968 358.549,288.968 358.357 C 288.968 358.164,289.088 358.033,289.235 358.064 C 289.711 358.164,290.897 357.555,292.210 356.534 C 292.917 355.985,293.564 355.604,293.648 355.689 C 294.229 356.270,306.600 345.799,306.165 345.094 C 306.041 344.894,306.094 344.825,306.283 344.942 C 306.621 345.151,307.143 344.606,309.924 341.153 C 312.741 337.654,313.879 334.516,313.879 330.248 C 313.879 327.253,313.665 326.329,312.275 323.310 C 311.696 322.050,308.037 318.458,306.762 317.896 C 304.010 316.683,302.625 316.370,300.016 316.370 C 297.217 316.370,297.199 316.364,297.052 315.391 C 296.930 314.587,296.894 314.646,296.850 315.720 C 296.792 317.151,296.474 317.473,292.720 319.909 C 291.332 320.809,289.735 322.366,288.094 324.417 C 280.091 334.418,262.573 342.690,237.367 348.372 C 235.507 348.791,233.345 349.281,232.562 349.461 C 225.858 351.001,210.753 353.227,200.000 354.258 C 186.124 355.589,183.591 355.689,163.879 355.683 C 142.927 355.676,132.871 355.153,119.751 353.388 C 112.726 352.443,111.304 352.242,108.185 351.752 C 100.630 350.564,89.528 348.290,83.630 346.722 C 81.776 346.229,81.228 346.078,78.025 345.176 C 77.291 344.969,76.210 344.665,75.623 344.500 C 57.737 339.479,43.066 330.993,37.583 322.496 C 36.735 321.182,35.281 319.401,34.353 318.539 C 33.425 317.677,32.519 316.556,32.340 316.048 C 31.643 314.062,24.646 313.146,20.996 314.562 " stroke="none" fill="#f48f0a" fill-rule="evenodd"></path><path id="path3" d="M159.251 20.847 C 158.665 21.087,158.065 21.209,157.918 21.119 C 157.771 21.028,157.651 21.127,157.651 21.338 C 157.651 21.565,157.304 21.635,156.802 21.509 C 156.213 21.361,155.803 21.495,155.467 21.947 C 155.200 22.305,154.583 22.655,154.096 22.724 C 153.608 22.793,152.807 23.127,152.316 23.467 C 151.825 23.806,151.143 24.185,150.801 24.308 C 150.458 24.432,150.178 24.693,150.178 24.889 C 150.178 25.084,149.931 25.150,149.630 25.034 C 149.328 24.918,149.128 24.963,149.185 25.134 C 149.242 25.305,149.183 25.445,149.054 25.445 C 148.925 25.445,148.472 25.885,148.049 26.423 C 147.626 26.962,147.079 27.402,146.833 27.402 C 146.320 27.402,144.547 29.176,145.045 29.192 C 145.226 29.198,145.090 29.368,144.743 29.570 C 144.397 29.772,144.206 30.087,144.320 30.271 C 144.433 30.455,144.276 30.605,143.971 30.605 C 143.666 30.605,143.416 30.743,143.416 30.911 C 143.416 31.079,142.866 31.912,142.194 32.761 C 141.522 33.611,141.039 34.416,141.122 34.551 C 141.205 34.685,141.037 34.991,140.747 35.231 C 140.458 35.471,140.299 35.793,140.393 35.946 C 140.488 36.099,140.303 36.325,139.983 36.448 C 139.662 36.571,139.500 36.772,139.623 36.895 C 139.746 37.018,139.569 37.346,139.229 37.625 C 138.890 37.903,138.824 38.022,139.083 37.890 C 139.632 37.608,138.898 39.114,138.256 39.585 C 138.060 39.729,138.040 39.849,138.211 39.852 C 138.382 39.855,138.328 40.091,138.091 40.376 C 137.855 40.661,137.764 41.061,137.891 41.266 C 138.017 41.470,137.941 41.637,137.722 41.637 C 137.504 41.637,137.439 41.822,137.578 42.048 C 137.726 42.286,137.677 42.363,137.462 42.230 C 137.010 41.951,136.156 42.898,136.442 43.360 C 136.555 43.543,136.409 43.889,136.117 44.131 C 135.826 44.373,135.585 44.912,135.582 45.328 C 135.575 46.383,134.571 49.215,134.051 49.644 C 133.516 50.087,132.622 51.928,132.542 52.752 C 132.509 53.091,132.260 53.642,131.988 53.976 C 131.608 54.446,131.602 54.520,131.966 54.302 C 132.340 54.076,132.359 54.171,132.055 54.767 C 131.845 55.179,131.512 55.834,131.317 56.223 C 131.121 56.612,130.961 57.319,130.961 57.795 C 130.961 58.270,130.805 58.713,130.615 58.778 C 130.426 58.843,130.225 59.297,130.171 59.786 C 130.116 60.276,129.870 60.889,129.623 61.150 C 129.377 61.410,129.264 61.767,129.373 61.943 C 129.481 62.119,129.371 62.627,129.127 63.071 C 128.882 63.515,128.658 64.272,128.627 64.752 C 128.597 65.232,128.389 65.685,128.165 65.760 C 127.941 65.835,127.758 66.211,127.758 66.595 C 127.758 66.980,127.511 67.772,127.210 68.356 C 126.908 68.939,126.751 69.560,126.860 69.737 C 126.969 69.913,126.914 70.147,126.738 70.255 C 126.562 70.364,126.041 71.616,125.580 73.038 C 125.119 74.460,124.619 75.676,124.468 75.742 C 124.318 75.808,124.290 76.015,124.406 76.203 C 124.522 76.390,124.429 76.770,124.199 77.046 C 123.970 77.323,123.877 77.702,123.993 77.890 C 124.109 78.078,124.040 78.286,123.840 78.352 C 123.640 78.419,123.407 79.019,123.322 79.685 C 123.238 80.351,122.977 81.014,122.743 81.159 C 122.508 81.304,122.415 81.679,122.535 81.993 C 122.655 82.306,122.589 82.562,122.388 82.562 C 122.187 82.562,122.121 82.722,122.242 82.918 C 122.363 83.114,122.275 83.274,122.047 83.274 C 121.819 83.274,121.722 83.509,121.833 83.796 C 121.943 84.084,121.877 84.415,121.687 84.533 C 121.496 84.650,121.433 84.896,121.545 85.078 C 121.658 85.260,121.581 85.409,121.373 85.409 C 121.166 85.409,120.995 85.609,120.994 85.854 C 120.993 86.099,120.754 86.756,120.462 87.315 C 120.171 87.873,120.026 88.481,120.139 88.665 C 120.253 88.849,120.164 89.218,119.941 89.487 C 119.719 89.755,119.456 90.423,119.356 90.972 C 119.256 91.521,118.984 92.201,118.751 92.481 C 118.518 92.762,118.348 93.087,118.374 93.204 C 118.399 93.321,118.260 93.817,118.065 94.306 C 117.869 94.795,117.648 95.667,117.573 96.243 C 117.497 96.819,117.316 97.379,117.170 97.489 C 116.920 97.675,116.745 98.179,116.580 99.189 C 116.541 99.428,116.398 99.735,116.262 99.871 C 116.126 100.007,116.014 100.412,116.014 100.771 C 116.014 101.130,115.854 101.423,115.658 101.423 C 115.463 101.423,115.302 102.074,115.302 102.868 C 115.302 103.923,115.183 104.243,114.858 104.056 C 114.613 103.916,114.537 103.937,114.689 104.104 C 114.841 104.271,115.265 104.453,115.631 104.509 C 120.961 105.322,133.832 117.280,138.357 125.623 C 159.507 164.613,124.078 209.744,81.495 198.055 C 79.324 197.459,78.869 197.693,78.405 199.644 C 78.289 200.133,78.033 200.738,77.836 200.987 C 77.640 201.237,77.575 201.537,77.693 201.655 C 77.811 201.773,77.662 202.345,77.362 202.925 C 77.061 203.506,76.908 204.073,77.021 204.186 C 77.134 204.298,76.960 204.684,76.636 205.042 C 76.312 205.401,76.170 205.694,76.320 205.694 C 76.471 205.694,76.329 206.099,76.005 206.594 C 75.681 207.089,75.527 207.674,75.663 207.894 C 75.814 208.139,75.751 208.196,75.500 208.041 C 75.133 207.814,74.929 208.240,75.047 208.986 C 75.070 209.133,74.946 209.253,74.772 209.253 C 74.476 209.253,73.912 210.704,73.857 211.607 C 73.844 211.825,73.636 212.240,73.396 212.529 C 73.156 212.818,73.043 213.138,73.145 213.240 C 73.246 213.341,73.138 213.887,72.905 214.452 C 72.671 215.018,72.464 215.560,72.444 215.658 C 72.425 215.756,72.282 216.036,72.127 216.281 C 71.971 216.526,71.933 216.869,72.041 217.045 C 72.149 217.220,71.988 217.459,71.683 217.576 C 71.378 217.693,71.158 218.070,71.193 218.414 C 71.306 219.522,71.183 219.976,70.829 219.757 C 70.412 219.499,69.942 221.153,70.278 221.697 C 70.408 221.908,70.329 222.038,70.100 221.984 C 69.685 221.886,69.505 222.128,68.683 223.898 C 68.251 224.826,68.459 225.803,69.015 225.460 C 69.860 224.938,77.102 227.009,81.318 228.978 C 113.113 243.829,113.894 288.493,82.634 304.256 C 69.170 311.045,51.206 309.588,39.653 300.772 L 37.846 299.393 36.895 301.477 C 36.371 302.623,35.943 303.871,35.943 304.251 C 35.943 304.630,35.779 305.042,35.578 305.166 C 35.377 305.290,35.242 305.580,35.278 305.810 C 35.314 306.040,35.240 306.468,35.114 306.762 C 34.987 307.055,34.834 307.616,34.773 308.007 C 34.712 308.399,34.463 309.082,34.219 309.527 C 33.975 309.971,33.872 310.492,33.990 310.684 C 34.109 310.875,34.066 311.032,33.894 311.032 C 33.304 311.032,31.982 314.816,32.229 315.799 C 32.358 316.312,33.266 317.492,34.247 318.420 C 35.228 319.348,36.727 321.182,37.578 322.496 C 42.337 329.846,50.682 335.343,65.858 341.124 C 69.862 342.649,73.454 343.891,75.623 344.500 C 76.210 344.665,77.251 344.960,77.936 345.156 C 89.069 348.336,101.863 350.971,114.413 352.668 C 115.979 352.880,118.381 353.204,119.751 353.388 C 132.871 355.153,142.927 355.676,163.879 355.683 C 183.591 355.689,186.124 355.589,200.000 354.258 C 210.753 353.227,225.858 351.001,232.562 349.461 C 233.345 349.281,235.507 348.791,237.367 348.372 C 262.573 342.690,280.091 334.418,288.094 324.417 C 289.746 322.352,291.323 320.818,292.720 319.916 C 296.862 317.243,296.853 317.256,296.819 314.232 C 296.767 309.518,296.750 309.253,296.505 309.252 C 296.372 309.251,296.234 308.589,296.197 307.780 C 296.161 306.971,295.973 306.151,295.780 305.958 C 295.587 305.765,295.524 305.360,295.640 305.058 C 295.756 304.757,295.703 304.600,295.523 304.711 C 295.343 304.822,295.160 304.426,295.117 303.831 C 295.074 303.235,294.794 302.478,294.494 302.147 C 294.195 301.816,293.950 301.289,293.950 300.976 C 293.950 300.663,293.676 300.133,293.341 299.797 C 293.006 299.462,292.686 298.971,292.629 298.704 C 292.573 298.438,292.478 297.985,292.418 297.697 C 292.359 297.409,292.199 297.062,292.062 296.926 C 291.926 296.790,291.815 296.385,291.815 296.026 C 291.815 295.667,291.575 295.374,291.281 295.374 C 290.988 295.374,290.727 295.214,290.703 295.018 C 290.617 294.332,290.531 294.117,289.745 292.616 C 289.310 291.784,289.065 291.103,289.201 291.103 C 289.337 291.103,289.132 290.743,288.746 290.302 C 287.418 288.787,286.957 288.087,287.503 288.416 C 287.774 288.579,287.341 287.749,286.540 286.570 C 285.740 285.392,285.176 284.338,285.286 284.227 C 285.397 284.117,284.986 283.284,284.374 282.377 C 283.762 281.470,283.216 280.460,283.161 280.133 C 283.106 279.805,282.875 279.198,282.646 278.783 C 282.418 278.369,282.333 277.928,282.456 277.805 C 282.580 277.681,282.467 277.580,282.206 277.580 C 281.945 277.580,281.837 277.475,281.966 277.346 C 282.095 277.217,282.045 276.924,281.855 276.695 C 281.664 276.466,281.456 275.971,281.391 275.595 C 281.326 275.219,280.782 273.950,280.182 272.776 C 279.583 271.601,278.979 270.120,278.842 269.484 C 278.704 268.848,278.444 268.327,278.264 268.327 C 278.083 268.327,277.976 268.127,278.025 267.883 C 278.074 267.638,277.902 267.482,277.643 267.536 C 277.383 267.589,277.257 267.495,277.361 267.326 C 277.466 267.156,277.259 266.472,276.901 265.804 C 276.543 265.137,276.253 264.511,276.256 264.413 C 276.282 263.535,274.454 259.366,273.826 258.869 C 273.560 258.658,273.246 257.944,273.129 257.282 C 273.013 256.620,272.767 255.897,272.583 255.676 C 272.399 255.454,272.362 255.159,272.502 255.019 C 272.641 254.880,272.556 254.642,272.312 254.492 C 272.069 254.341,271.801 253.863,271.717 253.428 C 271.463 252.110,270.664 250.014,270.321 249.768 C 270.144 249.640,269.940 249.005,269.869 248.356 C 269.798 247.708,269.582 247.020,269.390 246.827 C 269.197 246.635,269.039 246.207,269.039 245.877 C 269.039 245.547,268.807 244.830,268.524 244.283 C 268.240 243.737,268.094 243.151,268.198 242.981 C 268.303 242.812,268.225 242.476,268.025 242.235 C 267.825 241.994,267.595 241.401,267.514 240.916 C 267.434 240.432,267.204 239.635,267.005 239.146 C 266.805 238.657,266.718 238.056,266.811 237.811 C 266.904 237.567,266.793 237.367,266.565 237.367 C 266.337 237.367,266.241 237.220,266.351 237.041 C 266.462 236.862,266.401 236.662,266.216 236.596 C 266.031 236.531,265.803 235.996,265.709 235.409 C 265.616 234.822,265.523 234.262,265.504 234.164 C 265.485 234.066,265.352 234.168,265.208 234.392 C 265.064 234.615,262.980 235.292,260.577 235.896 C 208.512 248.982,167.943 199.337,192.666 152.793 C 198.399 142.002,210.081 130.669,220.612 125.683 C 221.704 125.166,222.658 124.707,222.731 124.664 C 222.805 124.620,222.613 123.956,222.306 123.187 C 221.998 122.418,221.858 121.665,221.994 121.513 C 222.130 121.362,222.042 121.353,221.797 121.494 C 221.473 121.681,221.352 121.365,221.352 120.327 C 221.352 119.544,221.192 118.804,220.996 118.683 C 220.801 118.562,220.641 118.067,220.641 117.583 C 220.641 117.100,220.401 116.612,220.109 116.500 C 219.816 116.387,219.663 116.157,219.767 115.987 C 220.204 115.281,218.832 113.447,218.034 113.671 C 204.864 117.356,184.577 111.185,172.206 99.732 C 157.212 85.850,150.858 58.356,158.912 42.211 C 159.197 41.639,159.431 41.020,159.431 40.835 C 159.431 38.056,170.115 22.789,172.474 22.197 L 173.342 21.979 172.399 21.489 C 171.881 21.220,171.306 21.093,171.122 21.207 C 170.938 21.321,170.434 21.182,170.002 20.900 C 168.992 20.238,160.837 20.199,159.251 20.847 M225.676 135.427 C 225.647 136.220,225.758 137.020,225.924 137.206 C 226.233 137.553,227.414 140.533,229.724 146.797 C 230.445 148.754,231.238 150.836,231.485 151.423 C 231.732 152.011,232.543 154.052,233.287 155.960 C 234.031 157.868,234.711 159.357,234.799 159.269 C 234.924 159.145,232.260 151.991,229.890 146.085 C 227.898 141.119,226.003 135.905,225.882 135.053 C 225.754 134.161,225.721 134.222,225.676 135.427 M234.875 159.888 C 234.875 160.010,235.058 160.557,235.281 161.104 C 237.268 165.976,237.938 167.789,239.893 173.591 C 240.902 176.583,241.798 178.962,241.884 178.876 C 241.970 178.790,241.003 175.700,239.735 172.011 C 237.073 164.262,234.875 158.781,234.875 159.888 M242.027 179.537 C 241.993 180.055,242.879 182.502,243.217 182.823 C 243.375 182.973,243.385 182.696,243.239 182.206 C 242.834 180.855,242.054 179.136,242.027 179.537 M243.462 183.630 C 243.478 184.641,245.375 188.736,245.907 188.910 C 246.382 189.064,246.382 189.012,245.907 188.442 C 245.614 188.090,244.942 186.743,244.414 185.449 C 243.886 184.155,243.457 183.336,243.462 183.630 M177.603 228.474 C 217.661 236.638,234.525 283.752,208.670 315.268 C 204.273 320.629,197.936 325.652,191.810 328.634 C 190.345 329.348,188.723 330.162,188.207 330.443 C 186.553 331.344,178.587 333.474,174.911 333.999 C 159.802 336.155,144.137 331.422,132.188 321.091 C 115.102 306.319,109.315 280.543,118.465 259.964 C 128.751 236.832,153.624 223.588,177.603 228.474 M14.111 319.075 C 13.192 320.335,13.523 320.411,14.529 319.170 C 14.984 318.609,15.224 318.154,15.063 318.161 C 14.901 318.167,14.473 318.578,14.111 319.075 M307.829 318.261 C 307.829 318.322,308.334 318.843,308.951 319.417 L 310.072 320.463 309.240 319.306 C 308.546 318.342,307.829 317.811,307.829 318.261 M11.744 324.911 C 11.744 325.498,11.806 325.979,11.881 325.979 C 11.957 325.979,12.089 325.498,12.176 324.911 C 12.262 324.324,12.200 323.843,12.038 323.843 C 11.876 323.843,11.744 324.324,11.744 324.911 M311.212 339.402 C 310.867 339.946,310.164 340.871,309.651 341.458 L 308.719 342.524 309.732 341.636 C 310.933 340.583,312.247 338.819,312.009 338.581 C 311.916 338.488,311.558 338.857,311.212 339.402 M18.151 342.883 C 18.639 343.470,19.079 344.017,19.128 344.098 C 19.177 344.180,19.295 344.168,19.391 344.073 C 19.487 343.977,19.047 343.430,18.414 342.857 L 17.262 341.815 18.151 342.883 M306.144 345.025 C 306.293 345.190,305.983 345.776,305.454 346.328 C 304.926 346.879,304.573 347.331,304.671 347.331 C 305.279 347.331,306.776 345.248,306.346 345.000 C 306.085 344.849,305.994 344.860,306.144 345.025 M26.661 351.019 C 27.135 351.603,28.470 352.485,28.470 352.215 C 28.470 352.147,27.949 351.710,27.313 351.244 C 26.597 350.721,26.349 350.635,26.661 351.019 M36.252 357.672 C 37.498 358.463,38.584 359.043,38.665 358.962 C 38.823 358.805,34.632 356.225,34.227 356.231 C 34.094 356.233,35.005 356.881,36.252 357.672 M288.968 358.292 C 288.968 358.514,288.528 358.935,287.989 359.227 C 287.451 359.519,287.193 359.764,287.416 359.772 C 288.036 359.794,289.538 358.460,289.235 358.156 C 289.088 358.009,288.968 358.070,288.968 358.292 M272.598 366.069 C 272.107 366.327,271.948 366.537,272.242 366.537 C 272.856 366.537,273.905 365.943,273.655 365.737 C 273.563 365.662,273.087 365.811,272.598 366.069 M95.374 377.575 C 95.667 377.768,96.294 377.927,96.767 377.930 C 97.910 377.938,97.620 377.735,96.085 377.454 C 95.209 377.293,94.998 377.329,95.374 377.575 M227.046 378.292 C 226.313 378.527,226.282 378.582,226.868 378.607 C 227.260 378.623,227.820 378.482,228.114 378.292 C 228.737 377.889,228.305 377.889,227.046 378.292 M104.626 379.053 C 104.626 379.221,105.027 379.359,105.516 379.359 C 106.005 379.359,106.406 379.298,106.406 379.223 C 106.406 379.148,106.005 379.010,105.516 378.916 C 105.027 378.823,104.626 378.884,104.626 379.053 M218.663 379.393 C 218.553 379.570,218.873 379.715,219.374 379.715 C 220.464 379.715,220.553 379.512,219.573 379.256 C 219.182 379.154,218.772 379.215,218.663 379.393 M107.918 379.605 C 108.261 379.694,108.821 379.694,109.164 379.605 C 109.506 379.515,109.226 379.442,108.541 379.442 C 107.856 379.442,107.576 379.515,107.918 379.605 M124.788 381.584 C 124.879 381.730,125.344 381.851,125.822 381.851 C 126.299 381.851,126.690 381.730,126.690 381.584 C 126.690 381.437,126.225 381.317,125.657 381.317 C 125.088 381.317,124.697 381.437,124.788 381.584 M201.426 381.584 C 201.423 381.955,203.272 381.908,203.884 381.521 C 204.221 381.308,203.898 381.222,202.907 381.260 C 202.093 381.291,201.427 381.437,201.426 381.584 M134.689 382.192 C 134.815 382.396,135.335 382.562,135.845 382.562 C 136.961 382.562,136.832 382.392,135.468 382.064 C 134.807 381.905,134.539 381.949,134.689 382.192 M192.705 382.206 C 191.720 382.457,191.706 382.481,192.527 382.515 C 193.016 382.535,193.657 382.396,193.950 382.206 C 194.556 381.815,194.243 381.815,192.705 382.206 M150.890 382.918 C 151.183 383.108,151.984 383.247,152.669 383.226 L 153.915 383.190 152.847 382.918 C 151.178 382.494,150.233 382.494,150.890 382.918 M174.383 383.060 C 174.569 383.249,175.467 383.235,176.583 383.024 L 178.470 382.667 176.270 382.704 C 174.973 382.725,174.198 382.872,174.383 383.060 M160.606 383.540 C 162.524 383.604,165.567 383.603,167.367 383.539 C 169.168 383.474,167.598 383.422,163.879 383.422 C 160.160 383.423,158.687 383.475,160.606 383.540 " stroke="none" fill="#ffcb4c" fill-rule="evenodd"></path></g></svg>