<svg id="svg" version="1.1" xmlns="http://www.w3.org/2000/svg" xmlns:xlink="http://www.w3.org/1999/xlink" width="400" height="180.74339453649796" viewBox="0, 0, 400,180.74339453649796"><g id="svgg"><path id="path0" d="M159.606 12.657 C 144.157 14.137,136.209 21.562,137.068 33.713 C 137.748 43.340,144.178 48.470,160.591 52.481 C 171.139 55.059,174.033 56.461,175.714 59.808 C 179.347 67.039,171.988 74.234,161.666 73.544 C 155.316 73.120,152.275 71.042,149.463 65.204 C 147.241 60.592,147.008 60.173,146.171 59.279 C 143.427 56.347,138.159 57.119,136.321 60.722 C 133.873 65.520,138.193 74.757,145.048 79.383 C 154.347 85.658,171.666 85.598,181.410 79.257 C 193.094 71.653,193.828 53.773,182.747 46.688 C 178.812 44.172,174.623 42.655,164.442 40.059 C 159.026 38.678,157.279 38.145,155.515 37.334 C 146.309 33.106,149.383 23.686,160.269 22.764 C 167.516 22.150,171.233 24.142,174.679 30.483 C 177.117 34.969,178.355 36.005,181.279 36.005 C 186.488 36.005,189.027 30.574,186.561 24.709 C 183.112 16.507,171.870 11.481,159.606 12.657 M17.555 14.078 C 12.500 15.437,11.721 22.510,16.391 24.649 C 17.904 25.343,19.208 25.434,27.631 25.435 L 35.647 25.437 35.653 51.366 C 35.660 79.119,35.638 78.403,36.554 80.340 C 38.880 85.264,46.609 85.175,48.802 80.201 C 49.630 78.322,49.619 78.706,49.619 51.402 L 49.619 25.437 57.635 25.435 C 66.057 25.434,67.361 25.343,68.876 24.650 C 73.317 22.618,73.027 15.873,68.428 14.234 C 67.086 13.756,19.299 13.609,17.555 14.078 M199.910 14.078 C 194.855 15.437,194.076 22.510,198.746 24.649 C 200.260 25.343,201.563 25.434,209.987 25.435 L 218.003 25.437 218.009 51.366 C 218.016 79.119,217.993 78.403,218.909 80.340 C 221.236 85.264,228.964 85.175,231.158 80.201 C 231.986 78.322,231.975 78.706,231.975 51.402 L 231.975 25.437 239.991 25.435 C 248.413 25.434,249.717 25.343,251.232 24.650 C 255.673 22.618,255.383 15.873,250.784 14.234 C 249.442 13.756,201.655 13.609,199.910 14.078 M267.980 14.037 C 265.130 14.656,263.351 16.508,262.794 19.436 C 262.411 21.446,262.617 77.063,263.011 78.218 C 263.720 80.295,265.174 81.717,267.242 82.357 C 268.176 82.646,269.832 82.669,290.013 82.669 L 311.778 82.669 312.614 82.279 C 317.153 80.160,316.812 73.468,312.091 72.010 C 310.969 71.663,310.413 71.652,293.756 71.652 L 276.579 71.652 276.579 61.894 L 276.579 52.135 292.118 52.086 C 309.599 52.032,308.704 52.101,310.329 50.671 C 312.576 48.693,312.461 44.446,310.113 42.683 C 308.449 41.433,309.181 41.484,292.029 41.421 L 276.579 41.364 276.579 33.042 L 276.579 24.720 292.302 24.720 C 308.678 24.720,310.351 24.656,311.816 23.967 C 316.017 21.992,315.525 15.543,311.070 14.167 C 309.607 13.715,270.011 13.596,267.980 14.037 M164.272 96.568 C 161.550 97.102,159.638 99.282,159.091 102.478 C 158.762 104.399,158.816 159.318,159.148 160.885 C 159.836 164.133,161.492 165.822,164.565 166.411 C 166.629 166.806,203.770 166.575,204.747 166.161 C 208.615 164.521,209.560 159.790,206.608 156.838 C 204.783 155.013,204.148 154.952,186.973 154.950 L 173.050 154.948 172.992 128.751 C 172.931 100.757,172.973 102.000,172.025 99.996 C 170.748 97.297,167.617 95.912,164.272 96.568 M223.023 96.648 C 220.351 97.398,218.713 99.346,218.191 102.394 C 218.033 103.316,217.994 110.991,218.036 132.826 L 218.092 162.024 218.506 163.189 C 220.851 169.787,229.680 169.363,231.728 162.554 C 232.107 161.294,232.347 107.197,231.990 103.623 C 231.456 98.282,227.675 95.342,223.023 96.648 M253.876 96.649 C 250.798 97.478,248.649 99.716,248.003 102.765 C 247.664 104.365,247.605 160.938,247.941 162.503 C 249.255 168.631,257.684 169.881,260.047 164.297 C 260.917 162.242,260.878 163.215,260.984 140.913 L 261.084 119.981 273.791 139.480 C 291.938 167.328,291.429 166.676,295.750 167.596 C 301.264 168.770,304.818 166.142,305.418 160.445 C 305.656 158.190,305.653 104.854,305.416 102.779 C 304.836 97.721,300.632 95.007,296.326 96.912 C 294.527 97.708,293.618 98.871,292.825 101.388 C 292.689 101.823,292.598 108.617,292.530 123.504 L 292.432 144.992 279.248 125.026 C 271.997 114.045,265.218 103.771,264.182 102.194 C 260.801 97.046,257.999 95.539,253.876 96.649 M326.381 96.648 C 323.710 97.398,322.072 99.346,321.550 102.394 C 321.392 103.316,321.353 110.991,321.395 132.826 L 321.451 162.024 321.865 163.189 C 323.872 168.837,331.743 169.546,334.410 164.318 C 335.365 162.446,335.382 162.243,335.465 151.142 C 335.508 145.452,335.574 140.797,335.612 140.797 C 335.650 140.797,335.986 140.970,336.358 141.181 C 336.731 141.392,337.358 141.743,337.752 141.961 C 338.146 142.179,339.395 142.881,340.528 143.520 C 341.661 144.159,343.072 144.950,343.663 145.277 C 345.264 146.162,345.933 146.544,346.529 146.911 C 346.825 147.094,347.181 147.297,347.320 147.364 C 347.459 147.431,348.614 148.077,349.885 148.799 C 351.157 149.521,352.266 150.112,352.351 150.112 C 352.435 150.112,352.613 150.213,352.745 150.336 C 352.877 150.459,353.507 150.835,354.146 151.171 C 354.784 151.507,355.528 151.936,355.799 152.123 C 356.070 152.311,356.292 152.420,356.292 152.366 C 356.292 152.311,356.715 152.534,357.232 152.861 C 357.750 153.188,358.616 153.691,359.158 153.977 C 359.700 154.264,360.184 154.550,360.233 154.614 C 360.282 154.677,360.614 154.851,360.971 154.999 L 361.619 155.269 361.702 156.766 C 361.941 161.099,365.330 165.231,369.543 166.322 C 371.717 166.885,376.871 166.486,377.429 165.711 C 377.479 165.642,377.763 165.488,378.062 165.367 C 378.361 165.247,378.845 164.941,379.137 164.687 C 379.429 164.434,379.790 164.134,379.939 164.021 C 380.393 163.676,382.087 161.695,382.087 161.510 C 382.087 161.414,382.199 161.209,382.336 161.053 C 383.640 159.570,384.036 154.857,383.090 152.082 C 382.805 151.245,382.502 150.533,382.418 150.500 C 382.335 150.467,382.266 150.362,382.266 150.267 C 382.266 149.814,380.645 147.879,379.383 146.826 C 376.238 144.199,370.670 143.924,366.796 146.204 C 365.388 147.033,365.802 147.115,362.806 145.412 C 361.807 144.844,360.900 144.380,360.790 144.380 C 360.681 144.380,360.591 144.318,360.591 144.243 C 360.591 144.168,360.289 143.964,359.919 143.791 C 359.248 143.477,358.029 142.797,357.190 142.268 C 356.770 142.004,356.012 141.588,354.142 140.597 C 353.699 140.362,353.296 140.130,353.247 140.081 C 353.197 140.031,352.875 139.840,352.530 139.655 C 352.185 139.470,351.581 139.135,351.187 138.911 C 348.952 137.643,346.996 136.554,346.527 136.319 C 346.233 136.172,345.952 136.010,345.902 135.961 C 345.853 135.911,345.369 135.636,344.828 135.350 C 343.046 134.407,343.063 134.501,344.517 133.652 C 345.230 133.237,345.934 132.821,346.082 132.729 C 346.229 132.637,347.035 132.160,347.873 131.668 C 348.710 131.177,349.493 130.692,349.612 130.591 C 349.731 130.490,349.876 130.408,349.934 130.408 C 349.992 130.408,350.481 130.125,351.020 129.781 C 351.559 129.436,352.039 129.154,352.088 129.154 C 352.136 129.154,352.880 128.723,353.741 128.197 C 354.602 127.672,355.952 126.860,356.740 126.394 C 357.528 125.928,358.294 125.473,358.442 125.382 C 358.589 125.292,359.395 124.815,360.233 124.324 C 361.070 123.832,361.853 123.348,361.972 123.247 C 362.091 123.146,362.225 123.063,362.271 123.063 C 362.316 123.063,363.168 122.582,364.165 121.994 C 365.879 120.982,365.993 120.941,366.286 121.232 C 366.775 121.718,368.403 122.498,369.543 122.793 C 371.717 123.357,376.871 122.957,377.429 122.182 C 377.479 122.114,377.763 121.959,378.062 121.838 C 378.361 121.718,378.845 121.412,379.137 121.159 C 379.429 120.905,379.790 120.606,379.939 120.492 C 380.393 120.147,382.087 118.166,382.087 117.981 C 382.087 117.885,382.199 117.680,382.336 117.524 C 383.640 116.041,384.036 111.328,383.090 108.554 C 382.805 107.716,382.502 107.004,382.418 106.971 C 382.335 106.938,382.266 106.833,382.266 106.738 C 382.266 105.862,379.486 103.137,377.698 102.260 C 370.510 98.736,361.666 103.759,361.666 111.365 C 361.666 112.668,361.347 113.356,360.729 113.384 C 360.657 113.387,360.157 113.672,359.618 114.017 C 359.079 114.362,358.553 114.644,358.450 114.644 C 358.347 114.644,358.262 114.715,358.262 114.802 C 358.262 114.889,358.121 115.008,357.949 115.066 C 357.650 115.166,357.501 115.252,356.472 115.920 C 356.225 116.081,355.741 116.366,355.396 116.554 C 355.052 116.742,353.923 117.403,352.888 118.023 C 351.854 118.642,350.847 119.244,350.650 119.360 C 350.453 119.475,350.091 119.701,349.844 119.861 C 349.597 120.022,349.113 120.306,348.768 120.494 C 348.259 120.771,343.838 123.392,342.409 124.264 C 342.212 124.384,341.930 124.541,341.782 124.613 C 341.635 124.684,341.094 125.010,340.582 125.336 C 340.069 125.662,339.566 125.929,339.462 125.929 C 339.359 125.929,339.275 126.000,339.275 126.087 C 339.275 126.175,339.133 126.293,338.961 126.351 C 338.789 126.409,338.491 126.559,338.300 126.685 C 337.445 127.248,336.112 128.028,335.826 128.132 C 335.530 128.241,335.513 127.618,335.510 116.654 C 335.506 104.418,335.419 102.566,334.759 100.690 C 333.644 97.522,329.827 95.680,326.381 96.648 " stroke="none" fill="#ffffff" fill-rule="evenodd"></path><path id="path1" d="M96.369 10.058 C 96.029 10.241,95.658 10.390,95.545 10.390 C 94.798 10.390,92.479 13.529,91.889 15.340 C 91.765 15.721,91.609 16.073,91.542 16.122 C 91.450 16.190,90.375 19.104,89.857 20.690 C 89.825 20.788,89.750 20.990,89.690 21.137 C 89.630 21.285,89.020 23.066,88.336 25.095 L 87.091 28.785 87.836 29.157 C 92.353 31.416,94.865 37.388,93.352 42.275 C 91.520 48.195,86.001 51.427,79.694 50.275 L 78.869 50.124 78.651 50.989 C 78.531 51.464,78.364 51.936,78.281 52.037 C 78.197 52.138,77.951 52.704,77.734 53.294 C 77.517 53.884,77.148 54.792,76.914 55.312 C 76.680 55.832,76.489 56.288,76.489 56.324 C 76.489 56.361,76.912 56.491,77.429 56.613 C 84.068 58.182,87.015 65.984,83.062 71.524 C 80.217 75.510,74.572 76.606,70.358 73.990 C 69.481 73.445,69.399 73.466,69.151 74.301 C 69.071 74.568,68.799 75.331,68.546 75.997 L 68.086 77.206 68.500 77.609 C 68.728 77.830,69.172 78.395,69.487 78.864 C 75.931 88.457,119.007 88.691,126.537 79.174 C 126.882 78.739,127.471 78.171,127.846 77.914 C 128.508 77.459,128.525 77.420,128.475 76.475 C 128.416 75.353,127.926 73.444,127.697 73.444 C 127.611 73.444,127.539 73.303,127.536 73.130 C 127.532 72.958,127.292 72.414,127.002 71.921 C 126.712 71.429,126.297 70.643,126.079 70.175 C 125.861 69.707,125.617 69.324,125.537 69.324 C 125.457 69.324,125.392 69.198,125.392 69.044 C 125.392 68.890,125.060 68.064,124.655 67.208 C 124.250 66.352,123.806 65.336,123.668 64.951 C 123.530 64.565,123.348 64.162,123.264 64.055 C 123.095 63.841,121.960 60.544,121.640 59.337 C 121.408 58.467,121.491 58.495,120.197 58.852 C 113.879 60.597,106.620 57.243,104.182 51.452 C 101.452 44.966,104.476 37.182,111.095 33.658 L 111.564 33.408 111.174 32.164 L 110.784 30.920 108.997 30.967 C 98.286 31.253,92.348 18.729,99.399 10.722 L 100.131 9.890 99.664 9.773 C 98.807 9.558,97.012 9.713,96.369 10.058 M102.016 57.322 C 110.589 59.515,114.100 69.928,108.576 76.784 C 102.273 84.608,89.725 81.827,87.225 72.053 C 84.989 63.312,93.253 55.081,102.016 57.322 " stroke="none" fill="#ffcb4c" fill-rule="evenodd"></path><path id="path2" d="M99.351 10.940 C 92.576 18.475,98.183 30.830,108.404 30.888 C 109.553 30.895,110.537 30.856,110.591 30.803 C 110.755 30.640,107.526 21.196,107.136 20.698 C 107.055 20.595,106.725 19.704,106.401 18.719 C 106.078 17.734,105.758 16.888,105.690 16.838 C 105.622 16.789,105.479 16.493,105.372 16.180 C 105.265 15.867,104.889 15.160,104.537 14.609 C 104.184 14.058,103.896 13.565,103.896 13.513 C 103.896 13.104,101.956 10.943,101.035 10.328 C 100.384 9.892,100.248 9.942,99.351 10.940 M86.825 29.422 C 86.666 29.742,86.244 30.690,85.887 31.527 C 85.531 32.365,85.125 33.292,84.986 33.587 C 84.606 34.396,83.584 37.154,83.029 38.871 C 82.758 39.709,82.427 40.636,82.293 40.931 C 82.159 41.227,81.561 42.880,80.964 44.604 C 80.368 46.328,79.732 48.061,79.551 48.455 C 78.734 50.239,79.027 50.434,82.490 50.411 C 93.786 50.335,97.954 35.603,88.389 29.562 C 87.021 28.698,87.178 28.712,86.825 29.422 M110.692 33.987 C 96.669 42.245,104.175 62.399,119.956 58.859 L 121.416 58.532 121.076 57.543 C 120.889 57.000,120.669 56.466,120.587 56.356 C 120.505 56.247,120.292 55.755,120.113 55.262 C 119.935 54.769,119.730 54.286,119.658 54.187 C 119.586 54.089,119.424 53.686,119.299 53.292 C 119.173 52.897,118.893 52.172,118.676 51.679 C 118.460 51.187,118.176 50.502,118.045 50.157 C 117.915 49.812,117.745 49.445,117.667 49.342 C 117.495 49.112,116.704 46.963,115.537 43.555 C 115.053 42.141,114.584 40.892,114.495 40.779 C 114.406 40.666,114.152 40.009,113.931 39.319 C 113.709 38.630,113.429 37.904,113.308 37.707 C 113.186 37.510,112.947 36.927,112.777 36.411 C 112.606 35.894,112.404 35.433,112.326 35.385 C 112.249 35.337,112.083 34.931,111.957 34.483 C 111.665 33.439,111.639 33.429,110.692 33.987 M76.049 57.385 C 75.811 57.892,75.562 58.529,75.496 58.800 C 75.430 59.071,75.304 59.292,75.216 59.292 C 75.128 59.292,75.056 59.388,75.056 59.505 C 75.056 59.621,74.895 60.065,74.698 60.490 C 74.501 60.915,74.187 61.605,74.001 62.024 C 73.524 63.098,72.759 64.776,72.258 65.848 C 72.024 66.350,71.832 66.822,71.832 66.896 C 71.832 66.970,71.701 67.305,71.542 67.641 C 71.124 68.522,69.364 73.608,69.488 73.577 C 69.545 73.562,70.278 73.885,71.115 74.293 C 73.614 75.512,75.976 75.701,78.381 74.873 C 87.510 71.732,86.663 58.750,77.191 56.622 L 76.482 56.463 76.049 57.385 M96.941 57.164 C 91.190 58.121,86.493 64.030,86.928 69.761 C 87.736 80.410,100.374 85.143,107.790 77.573 C 115.905 69.291,108.441 55.252,96.941 57.164 " stroke="none" fill="#bf1a30" fill-rule="evenodd"></path><path id="path3" d="M99.496 10.614 L 98.970 11.196 99.552 10.670 C 100.095 10.179,100.217 10.031,100.078 10.031 C 100.047 10.031,99.785 10.293,99.496 10.614 M99.866 27.407 C 100.351 27.900,100.788 28.303,100.837 28.303 C 100.887 28.303,100.530 27.900,100.045 27.407 C 99.560 26.914,99.122 26.511,99.073 26.511 C 99.024 26.511,99.380 26.914,99.866 27.407 M90.372 31.169 C 90.757 31.563,91.112 31.885,91.161 31.885 C 91.210 31.885,90.936 31.563,90.551 31.169 C 90.166 30.775,89.811 30.452,89.762 30.452 C 89.712 30.452,89.987 30.775,90.372 31.169 M107.290 36.498 L 106.673 37.170 107.344 36.552 C 107.970 35.978,108.098 35.826,107.962 35.826 C 107.932 35.826,107.629 36.129,107.290 36.498 M93.727 39.767 C 93.727 40.112,93.764 40.253,93.809 40.081 C 93.854 39.908,93.854 39.626,93.809 39.454 C 93.764 39.281,93.727 39.422,93.727 39.767 M107.479 60.457 C 107.813 60.802,108.127 61.084,108.176 61.084 C 108.225 61.084,107.992 60.802,107.658 60.457 C 107.324 60.112,107.010 59.830,106.961 59.830 C 106.911 59.830,107.145 60.112,107.479 60.457 M90.360 60.591 L 89.834 61.173 90.416 60.647 C 90.737 60.358,90.999 60.096,90.999 60.065 C 90.999 59.927,90.851 60.048,90.360 60.591 M65.599 76.932 C 64.169 77.379,63.200 79.065,63.590 80.426 C 63.676 80.724,63.703 80.967,63.652 80.967 C 63.313 80.967,64.949 83.194,66.189 84.420 C 67.498 85.716,71.446 87.983,73.329 88.521 C 73.737 88.637,74.151 88.790,74.250 88.861 C 74.525 89.059,77.111 89.840,78.907 90.268 C 79.794 90.480,80.842 90.730,81.236 90.824 C 88.334 92.522,102.627 92.857,111.240 91.527 C 115.134 90.926,122.606 89.013,123.144 88.480 C 123.237 88.388,123.416 88.312,123.540 88.312 C 125.297 88.312,131.337 83.830,132.126 81.940 C 133.790 77.958,129.370 75.721,126.583 79.135 C 118.776 88.697,75.980 88.494,69.485 78.864 C 68.146 76.879,67.229 76.423,65.599 76.932 M90.372 77.743 C 90.757 78.137,91.112 78.459,91.161 78.459 C 91.210 78.459,90.936 78.137,90.551 77.743 C 90.166 77.349,89.811 77.026,89.762 77.026 C 89.712 77.026,89.987 77.349,90.372 77.743 " stroke="none" fill="#f48f0a" fill-rule="evenodd"></path></g></svg>